<?xml version="1.0" encoding="utf-8"?>
<!-- Generator: Adobe Illustrator 19.0.0, SVG Export Plug-In . SVG Version: 6.00 Build 0)  -->
<svg version="1.1" id="Camada_1" xmlns="http://www.w3.org/2000/svg" xmlns:xlink="http://www.w3.org/1999/xlink" x="0px" y="0px"
	 viewBox="0 0 196.9 60.7" style="enable-background:new 0 0 196.9 60.7;" xml:space="preserve">
<style type="text/css">
	.st0{fill:#4B5F99;}
	.st1{font-family:'Aleo-Bold';}
	.st2{font-size:29.0393px;}
	.st3{fill:#6379B7;}
	.st4{fill:#E7ECED;}
	.st5{fill:#5F77AA;}
</style>
<text id="XMLID_1_" transform="matrix(1 0 0 1 66.1981 49.6094)" class="st0 st1 st2">Coreblue</text>
<g id="XMLID_41_">
	<g id="XMLID_2_">
		<path id="XMLID_23_" class="st0" d="M56.6,20.4H16.3v-7.4c0-0.5,0.4-1,1-1h38.3c0.5,0,1,0.4,1,1V20.4z"/>
		<path id="XMLID_22_" class="st3" d="M18.4,20.4v26.8c0,1.3,1.1,2.4,2.4,2.4h31.4c1.3,0,2.4-1.1,2.4-2.4V20.4H18.4z"/>
		<path id="XMLID_21_" class="st0" d="M25.3,49.6h-4.6c-1.3,0-2.4-1.1-2.4-2.4v-4.6l0,0C22.2,42.7,25.3,45.8,25.3,49.6L25.3,49.6z"
			/>
		<path id="XMLID_20_" class="st0" d="M52.1,49.6h-4.6l0,0c0-3.8,3.1-6.9,6.9-6.9l0,0v4.6C54.5,48.5,53.4,49.6,52.1,49.6z"/>
		<path id="XMLID_19_" class="st4" d="M40.2,31.6h-7.6c-1.3,0-2.4-1.1-2.4-2.4v-1c0-0.4,0.3-0.7,0.7-0.7c0.4,0,0.7,0.3,0.7,0.7v1
			c0,0.6,0.5,1,1,1h7.6c0.6,0,1-0.5,1-1v-1c0-0.4,0.3-0.7,0.7-0.7c0.4,0,0.7,0.3,0.7,0.7v1C42.7,30.5,41.6,31.6,40.2,31.6z"/>
		<rect id="XMLID_18_" x="18.4" y="20.4" class="st5" width="36.1" height="4.2"/>
		<g id="XMLID_17_">
		</g>
		<g id="XMLID_16_">
		</g>
		<g id="XMLID_15_">
		</g>
		<g id="XMLID_14_">
		</g>
		<g id="XMLID_13_">
		</g>
		<g id="XMLID_12_">
		</g>
		<g id="XMLID_11_">
		</g>
		<g id="XMLID_10_">
		</g>
		<g id="XMLID_9_">
		</g>
		<g id="XMLID_8_">
		</g>
		<g id="XMLID_7_">
		</g>
		<g id="XMLID_6_">
		</g>
		<g id="XMLID_5_">
		</g>
		<g id="XMLID_4_">
		</g>
		<g id="XMLID_3_">
		</g>
	</g>
	<g id="XMLID_24_">
		<path id="XMLID_40_" class="st0" d="M36.3,28.4c0.9-2.1,2.9-3.6,5.3-3.6c3.2,0,5.5,2.7,5.8,6c0,0,0.2,0.8-0.2,2.3
			c-0.5,2-1.6,3.7-3.1,5.1l-7.8,7l-7.7-7c-1.5-1.3-2.6-3.1-3.1-5.1c-0.3-1.5-0.2-2.3-0.2-2.3c0.3-3.3,2.6-6,5.8-6
			C33.6,24.9,35.5,26.3,36.3,28.4z"/>
		<g id="XMLID_39_">
		</g>
		<g id="XMLID_38_">
		</g>
		<g id="XMLID_37_">
		</g>
		<g id="XMLID_36_">
		</g>
		<g id="XMLID_35_">
		</g>
		<g id="XMLID_34_">
		</g>
		<g id="XMLID_33_">
		</g>
		<g id="XMLID_32_">
		</g>
		<g id="XMLID_31_">
		</g>
		<g id="XMLID_30_">
		</g>
		<g id="XMLID_29_">
		</g>
		<g id="XMLID_28_">
		</g>
		<g id="XMLID_27_">
		</g>
		<g id="XMLID_26_">
		</g>
		<g id="XMLID_25_">
		</g>
	</g>
</g>
</svg>
